<svg xmlns="http://www.w3.org/2000/svg" xmlns:xlink="http://www.w3.org/1999/xlink" preserveAspectRatio="xMidYMid" width="215" height="21" viewBox="0 0 215 21">
  <path d="M214.994,21.010 C214.994,21.010 210.700,21.010 210.700,21.010 C210.700,21.010 204.324,9.845 204.324,9.845 C204.324,9.845 207.196,9.845 207.196,9.845 C209.295,9.845 211.018,8.601 211.018,6.585 C211.018,4.570 209.516,3.284 207.417,3.284 C207.417,3.284 202.336,3.284 202.336,3.284 C202.336,3.284 202.336,9.845 202.336,9.845 C202.336,9.845 202.336,21.000 202.336,21.000 C202.336,21.000 198.581,21.000 198.581,21.000 C198.581,21.000 198.581,0.003 198.581,0.003 C198.581,0.003 207.901,0.003 207.901,0.003 C212.100,0.003 214.835,2.712 214.835,6.585 C214.835,10.333 212.354,12.349 209.809,12.759 C209.809,12.759 214.994,21.010 214.994,21.010 ZM177.046,0.003 C177.046,0.003 191.583,0.003 191.583,0.003 C191.583,0.003 191.583,3.247 191.583,3.247 C191.583,3.247 180.768,3.247 180.768,3.247 C180.768,3.247 180.768,8.696 180.768,8.696 C180.768,8.696 191.360,8.696 191.360,8.696 C191.360,8.696 191.360,11.940 191.360,11.940 C191.360,11.940 180.768,11.940 180.768,11.940 C180.768,11.940 180.768,17.766 180.768,17.766 C180.768,17.766 191.583,17.766 191.583,17.766 C191.583,17.766 191.583,21.010 191.583,21.010 C191.583,21.010 177.046,21.010 177.046,21.010 C177.046,21.010 177.046,0.003 177.046,0.003 ZM164.290,21.010 C164.290,21.010 160.569,21.010 160.569,21.010 C160.569,21.010 160.569,3.247 160.569,3.247 C160.569,3.247 154.143,3.247 154.143,3.247 C154.143,3.247 154.143,0.003 154.143,0.003 C154.143,0.003 170.716,0.003 170.716,0.003 C170.716,0.003 170.716,3.247 170.716,3.247 C170.716,3.247 164.290,3.247 164.290,3.247 C164.290,3.247 164.290,21.010 164.290,21.010 ZM133.976,0.003 C133.976,0.003 148.513,0.003 148.513,0.003 C148.513,0.003 148.513,3.247 148.513,3.247 C148.513,3.247 137.698,3.247 137.698,3.247 C137.698,3.247 137.698,8.696 137.698,8.696 C137.698,8.696 148.290,8.696 148.290,8.696 C148.290,8.696 148.290,11.940 148.290,11.940 C148.290,11.940 137.698,11.940 137.698,11.940 C137.698,11.940 137.698,17.766 137.698,17.766 C137.698,17.766 148.513,17.766 148.513,17.766 C148.513,17.766 148.513,21.010 148.513,21.010 C148.513,21.010 133.976,21.010 133.976,21.010 C133.976,21.010 133.976,0.003 133.976,0.003 ZM122.557,5.420 C122.557,5.420 116.036,21.010 116.036,21.010 C116.036,21.010 114.445,21.010 114.445,21.010 C114.445,21.010 107.956,5.420 107.956,5.420 C107.956,5.420 107.956,21.010 107.956,21.010 C107.956,21.010 104.235,21.010 104.235,21.010 C104.235,21.010 104.235,0.003 104.235,0.003 C104.235,0.003 109.483,0.003 109.483,0.003 C109.483,0.003 115.241,13.829 115.241,13.829 C115.241,13.829 121.030,0.003 121.030,0.003 C121.030,0.003 126.278,0.003 126.278,0.003 C126.278,0.003 126.278,21.010 126.278,21.010 C126.278,21.010 122.557,21.010 122.557,21.010 C122.557,21.010 122.557,5.420 122.557,5.420 ZM92.816,0.003 C92.816,0.003 96.537,0.003 96.537,0.003 C96.537,0.003 96.537,21.010 96.537,21.010 C96.537,21.010 92.816,21.010 92.816,21.010 C92.816,21.010 92.816,0.003 92.816,0.003 ZM70.454,6.019 C70.454,6.019 70.454,21.010 70.454,21.010 C70.454,21.010 66.732,21.010 66.732,21.010 C66.732,21.010 66.732,0.003 66.732,0.003 C66.732,0.003 70.549,0.003 70.549,0.003 C70.549,0.003 81.396,14.585 81.396,14.585 C81.396,14.585 81.396,0.003 81.396,0.003 C81.396,0.003 85.118,0.003 85.118,0.003 C85.118,0.003 85.118,21.010 85.118,21.010 C85.118,21.010 81.523,21.010 81.523,21.010 C81.523,21.010 70.454,6.019 70.454,6.019 ZM54.334,13.782 C54.334,13.782 50.573,3.719 50.573,3.719 C50.573,3.719 46.824,13.782 46.824,13.782 C46.824,13.782 44.148,21.010 44.148,21.010 C44.148,21.010 39.917,21.010 39.917,21.010 C39.917,21.010 48.251,0.003 48.251,0.003 C48.251,0.003 52.895,0.003 52.895,0.003 C52.895,0.003 61.229,21.010 61.229,21.010 C61.229,21.010 56.999,21.010 56.999,21.010 C56.999,21.010 54.334,13.782 54.334,13.782 ZM22.518,0.003 C22.518,0.003 26.239,0.003 26.239,0.003 C26.239,0.003 26.239,17.766 26.239,17.766 C26.239,17.766 35.591,17.766 35.591,17.766 C35.591,17.766 35.591,21.010 35.591,21.010 C35.591,21.010 22.518,21.010 22.518,21.010 C22.518,21.010 22.518,0.003 22.518,0.003 ZM9.317,13.168 C9.317,13.168 3.719,13.168 3.719,13.168 C3.719,13.168 3.719,21.010 3.719,21.010 C3.719,21.010 -0.003,21.010 -0.003,21.010 C-0.003,21.010 -0.003,0.003 -0.003,0.003 C-0.003,0.003 9.317,0.003 9.317,0.003 C13.770,0.003 16.251,3.026 16.251,6.585 C16.251,10.144 13.738,13.168 9.317,13.168 ZM8.808,3.247 C8.808,3.247 3.719,3.247 3.719,3.247 C3.719,3.247 3.719,9.924 3.719,9.924 C3.719,9.924 8.808,9.924 8.808,9.924 C10.907,9.924 12.434,8.601 12.434,6.585 C12.434,4.570 10.907,3.247 8.808,3.247 Z" id="path-1" fill="#ccd8db" fill-rule="evenodd"/>
</svg>
